<svg width="44" height="44" fill="none" xmlns="http://www.w3.org/2000/svg"><g clip-path="url(#a)" fill-rule="evenodd" clip-rule="evenodd"><path d="M39 5H5v34h34V27.4c-.68.19-1.42.27-2.2.27-3.2 0-5.75-1.4-5.75-4.95 0-3.53 2.56-4.93 5.74-4.93.79 0 1.53.08 2.21.26V5zm0 14.24a5.94 5.94 0 0 0-2.2-.37c-2.45 0-4.3 1-4.3 3.83 0 2.87 1.85 3.88 4.3 3.88.81 0 1.56-.11 2.2-.37v-6.97z" fill="#252525"/><path d="m10.35 22.11 5.34-2.97H9V17.8h9.44v1.22l-2.12 1.17L14 21.46h.27a6.46 6.46 0 0 1 3.24.75 2.5 2.5 0 0 1 1.31 2.22c0 1.03-.58 1.85-1.56 2.4-.98.56-2.36.85-3.97.85-2.3 0-3.83-.5-4.7-.93l-.07-.04v-1.4l.19.09c1 .47 2.39.93 4.57.93a6.4 6.4 0 0 0 2.91-.52c.63-.34.93-.8.93-1.4 0-.29-.08-.53-.23-.73a1.7 1.7 0 0 0-.67-.52c-.6-.29-1.5-.43-2.64-.43a7.88 7.88 0 0 0-2.54.43h-.01l-.12.05-.56-1.1zm14.95-4.46c-2.04 0-3.5.6-4.46 1.62a5.76 5.76 0 0 0-1.38 4.04c0 1.46.33 2.6 1.2 3.36.87.77 2.23 1.13 4.22 1.13 1.5 0 2.85-.3 3.82-.89.98-.58 1.6-1.45 1.6-2.56 0-1.06-.55-1.86-1.5-2.4a7.98 7.98 0 0 0-3.83-.78c-1.67 0-3.1.43-3.93 1.14a3.57 3.57 0 0 1 1.06-2.37c.68-.6 1.71-.94 3.2-.94 1.56 0 2.9.23 4.22.93l.2.1v-1.41l-.08-.04a9.64 9.64 0 0 0-4.35-.93zm-4.04 6.82c0-.61.32-1.09.95-1.42a5.96 5.96 0 0 1 2.73-.52c1.08 0 2 .18 2.66.51.65.34 1 .81 1 1.42 0 .63-.35 1.13-1 1.46a6.1 6.1 0 0 1-2.75.53c-1.22 0-2.13-.2-2.72-.56a1.58 1.58 0 0 1-.87-1.42zm15.54-6.82a6.8 6.8 0 0 0-4.15 1.17c-1.08.83-1.73 2.1-1.73 3.9 0 1.8.65 3.09 1.72 3.91a6.79 6.79 0 0 0 4.15 1.17 6.8 6.8 0 0 0 4.15-1.17c1.08-.82 1.73-2.1 1.73-3.9 0-1.8-.65-3.08-1.73-3.9a6.79 6.79 0 0 0-4.15-1.18zm-4.17 5.05c0-1.38.45-2.3 1.18-2.87A4.76 4.76 0 0 1 36.8 19c1.21 0 2.25.25 2.98.83s1.18 1.5 1.18 2.91c0 1.39-.45 2.3-1.18 2.88-.73.58-1.77.83-2.98.83-1.2 0-2.24-.25-2.98-.84-.73-.58-1.18-1.5-1.18-2.9z" fill="#fff"/></g><defs><clipPath id="a"><circle cx="22" cy="22" r="17"/></clipPath></defs></svg>