<svg width="44" height="44" fill="none" xmlns="http://www.w3.org/2000/svg"><g clip-path="url(#a)"><path fill="#F5E5CB" d="M5 5h34v34H5z"/><path d="m24.1 17.63 6.28-4.06c-.28-.54-.7-.99-1.22-1.3L17.56 5H15.2c-2.28 0-4.5.77-6.3 2.19l14.41 9.55a3 3 0 0 1 .8.9z" fill="url(#b)"/><path d="m12.71 25.04 7.13-4.62c-.1-.2-.23-.37-.37-.54a2.72 2.72 0 0 0-.45-.38l-13-8.7A10.13 10.13 0 0 0 5 15.2v4.54l7.68 5.3h.03z" fill="url(#c)"/><path d="M12.68 25.04 5 19.74v9.06a10.2 10.2 0 0 0 7.68 9.87V25.04z" fill="url(#d)"/><path d="m19.84 20.42-7.11 4.62v13.64c.8.21 1.64.32 2.47.32h.6l3.44-2.21.88-.57V21.65c0-.43-.09-.85-.28-1.23z" fill="url(#e)"/><path d="m30.31 13.65-6.2 4c.24.4.37.87.37 1.34V33.4l4.73-3.04a3.56 3.56 0 0 0 1.6-2.97V15.28c0-.59-.14-1.17-.42-1.69l-.08.06z" fill="url(#f)"/><path d="M19.47 19.86c.15.16.27.33.38.52l4.25-2.73a3 3 0 0 0-.8-.9L8.9 7.18a10.2 10.2 0 0 0-2.88 3.59l12.94 8.65c.19.12.36.26.5.43z" fill="url(#g)"/><path d="m24.08 17.68-4.22 2.73c.21.4.32.85.32 1.3V36.2l4.25-2.75V18.96c0-.45-.13-.89-.35-1.28z" fill="url(#h)"/></g><defs><radialGradient id="d" cx="0" cy="0" r="1" gradientUnits="userSpaceOnUse" gradientTransform="rotate(-128.37 15.9 15.6) scale(19.6004 18.1402)"><stop stop-color="#CA8D32"/><stop offset="1" stop-color="#F2C888"/></radialGradient><radialGradient id="e" cx="0" cy="0" r="1" gradientUnits="userSpaceOnUse" gradientTransform="matrix(20.37566 -10.56427 9.54685 18.41333 12.07 35)"><stop stop-color="#C4892F"/><stop offset="1" stop-color="#E6BE81"/></radialGradient><radialGradient id="f" cx="0" cy="0" r="1" gradientUnits="userSpaceOnUse" gradientTransform="matrix(20.37566 -10.56427 9.54685 18.41333 12.07 35)"><stop stop-color="#C4892F"/><stop offset="1" stop-color="#E6BE81"/></radialGradient><radialGradient id="g" cx="0" cy="0" r="1" gradientUnits="userSpaceOnUse" gradientTransform="matrix(15.37281 16.43533 -12.27236 11.47897 1.97 4.3)"><stop stop-color="#FFF6E8"/><stop offset=".68" stop-color="#FFF9EF"/><stop offset="1" stop-color="#F0DBBC"/></radialGradient><radialGradient id="h" cx="0" cy="0" r="1" gradientUnits="userSpaceOnUse" gradientTransform="matrix(15.37281 16.43533 -12.27236 11.47897 1.97 4.3)"><stop stop-color="#FFF6E8"/><stop offset=".68" stop-color="#FFF9EF"/><stop offset="1" stop-color="#F0DBBC"/></radialGradient><linearGradient id="b" x1="19.12" y1="3.29" x2="20.36" y2="20.28" gradientUnits="userSpaceOnUse"><stop stop-color="#FFE7C2"/><stop offset="1" stop-color="#E3B673"/></linearGradient><linearGradient id="c" x1="11.24" y1="3.87" x2="12.47" y2="20.86" gradientUnits="userSpaceOnUse"><stop stop-color="#FFE7C2"/><stop offset="1" stop-color="#E3B673"/></linearGradient><clipPath id="a"><circle cx="22" cy="22" r="17"/></clipPath></defs></svg>