<?xml version="1.0" encoding="UTF-8"?>
<svg width="24px" height="24px" viewBox="0 0 24 24" version="1.1" xmlns="http://www.w3.org/2000/svg" xmlns:xlink="http://www.w3.org/1999/xlink">
    <!-- Generator: Sketch 50 (54983) - http://www.bohemiancoding.com/sketch -->
    <title>Forecast/Dark/skc_d</title>
    <desc>Created with Sketch.</desc>
    <defs>
        <radialGradient cx="50%" cy="50.2699398%" fx="50%" fy="50.2699398%" r="48.3967534%" id="radialGradient-1">
            <stop stop-color="#FFC227" offset="0%"></stop>
            <stop stop-color="#FFB300" offset="100%"></stop>
        </radialGradient>
    </defs>
    <g id="Forecast/Dark/skc_d" stroke="none" stroke-width="1" fill="none" fill-rule="evenodd">
        <circle id="Oval-3" fill="url(#radialGradient-1)" cx="12" cy="12" r="5"></circle>
        <path d="M16.6994346,2.60317418 L15.5244932,5.43973358 C15.1418098,6.36361311 13.7559905,5.78958796 14.1386739,4.86570843 L15.3136153,2.02914903 C15.6962987,1.1052695 17.082118,1.67929464 16.6994346,2.60317418 Z" id="Path-28" fill="#FFB300" fill-rule="nonzero"></path>
        <path d="M9.85365319,19.1303525 L8.67871181,21.9669119 C8.29602838,22.8907914 6.91020908,22.3167663 7.29289251,21.3928867 L8.46783389,18.5563273 C8.85051732,17.6324478 10.2363366,18.2064729 9.85365319,19.1303525 Z" id="Path-28" fill="#FFB300" fill-rule="nonzero"></path>
        <path d="M21.96602,8.68155371 L19.1294606,9.85649509 C18.205581,10.2391785 17.6315559,8.85335922 18.5554354,8.47067579 L21.3919948,7.29573441 C22.3158744,6.91305098 22.8898995,8.29887028 21.96602,8.68155371 Z" id="Path-28" fill="#FFB300" fill-rule="nonzero"></path>
        <path d="M5.43884167,15.5273351 L2.60228226,16.7022765 C1.67840273,17.0849599 1.10437758,15.6991406 2.02825712,15.3164572 L4.86481652,14.1415158 C5.78869605,13.7588324 6.3627212,15.1446517 5.43884167,15.5273351 Z" id="Path-28" fill="#FFB300" fill-rule="nonzero"></path>
        <path d="M21.3919948,16.7036553 L18.5554354,15.528714 C17.6315559,15.1460305 18.205581,13.7602112 19.1294606,14.1428947 L21.96602,15.317836 C22.8898995,15.7005195 22.3158744,17.0863388 21.3919948,16.7036553 Z" id="Path-28" fill="#FFB300" fill-rule="nonzero"></path>
        <path d="M4.86481652,9.85787394 L2.02825712,8.68293256 C1.10437758,8.30024913 1.67840273,6.91442983 2.60228226,7.29711326 L5.43884167,8.47205464 C6.3627212,8.85473807 5.78869605,10.2405574 4.86481652,9.85787394 Z" id="Path-28" fill="#FFB300" fill-rule="nonzero"></path>
        <path d="M8.67733296,2.02914903 L9.85227434,4.86570843 C10.2349578,5.78958796 8.84913847,6.36361311 8.46645504,5.43973358 L7.29151366,2.60317418 C6.90883023,1.67929464 8.29464953,1.1052695 8.67733296,2.02914903 Z" id="Path-28" fill="#FFB300" fill-rule="nonzero"></path>
        <path d="M15.5231144,18.5563273 L16.6980557,21.3928867 C17.0807392,22.3167663 15.6949199,22.8907914 15.3122364,21.9669119 L14.1372951,19.1303525 C13.7546116,18.2064729 15.1404309,17.6324478 15.5231144,18.5563273 Z" id="Path-28" fill="#FFB300" fill-rule="nonzero"></path>
    </g>
</svg>