<svg xmlns="http://www.w3.org/2000/svg" width="60" height="60" viewBox="0 0 60 60">
  <defs>
    <linearGradient id="60-60-bro-popup-morda-update-18-a" x1="50%" x2="50%" y1="0%" y2="100%">
      <stop offset="0%" stop-opacity=".04"/>
      <stop offset="100%" stop-opacity=".15"/>
    </linearGradient>
    <linearGradient id="60-60-bro-popup-morda-update-18-b" x1="50%" x2="50%" y1="0%" y2="100%">
      <stop offset="0%" stop-color="#FFF"/>
      <stop offset="100%" stop-color="#EDEDED"/>
    </linearGradient>
    <linearGradient id="60-60-bro-popup-morda-update-18-c" x1="50%" x2="50%" y1="0%" y2="100%">
      <stop offset="0%" stop-color="#FFF"/>
      <stop offset="100%" stop-color="#F2F2F2"/>
    </linearGradient>
  </defs>
  <g fill="none" fill-rule="evenodd" transform="translate(3 3)">
    <rect width="54" height="54" fill="none"/>
    <circle cx="27" cy="27" r="27" fill="url(#60-60-bro-popup-morda-update-18-a)"/>
    <circle cx="27" cy="27" r="24.3" fill="url(#60-60-bro-popup-morda-update-18-b)"/>
    <circle cx="27" cy="27" r="24.75" fill="url(#60-60-bro-popup-morda-update-18-c)"/>
    <path fill="#F33" d="M29.8678837,29.7573016 L29.8678837,46.9078848 C29.8678837,47.2167188 28.5295256,47.4637861 27.0058563,47.484375 C25.5439574,47.4637861 24.1438289,47.2167188 24.1438289,46.9078848 L24.1438289,29.7573016 L10.0395931,15.9627148 C9.81310171,15.7362365 10.5337561,14.6656119 11.6456229,13.5538094 C12.7574896,12.4420069 13.8487663,11.7213941 14.0546675,11.9478724 L26.9852662,24.5688898 L39.9158648,11.9478724 C40.1423562,11.7213941 41.2130427,12.4420069 42.3249095,13.5538094 C43.4367762,14.6656119 44.1780207,15.7362365 43.9721195,15.9627148 L29.8678837,29.7573016 Z"/>
  </g>
</svg>
