<svg width="44" height="44" fill="none" xmlns="http://www.w3.org/2000/svg"><g clip-path="url(#a)"><path d="M5 5h34v34H5V5z" fill="#FFE033"/><path d="M24.9 31.06c3.45-2 5.87-5.11 7.06-8.66l3.78 1.3a19.72 19.72 0 0 1-8.85 10.83C19.47 38.8 10.63 37.58 5 32.33v-6.45l.26.47c3.7 6.42 12.38 8.9 19.63 4.71z" fill="#000"/><path d="M5 14.05a12.22 12.22 0 0 1 4.71-4.89c5.63-3.25 12.21-1.23 14.94 3.5 2.56 4.43 1.14 10.04-3.15 12.52-3.93 2.27-8.42.9-10.26-2.28-1.65-2.85-.73-6.36 1.87-7.86 2.3-1.32 4.68-.47 5.57 1.07.77 1.34.3 2.69-.58 3.2a1 1 0 0 1-.63.17 1.99 1.99 0 0 0-3.21-1.85 2.63 2.63 0 0 0-.95 1.98c-.03.62.14 1.26.47 1.83 1.3 2.26 4.27 2.51 6.32 1.32 3-1.73 3.74-5.65 2.02-8.63-2.11-3.66-7.03-4.85-11.01-2.55-4.63 2.67-5.98 8.68-3.31 13.3 3.02 5.25 10.02 7.04 15.7 3.76 6.27-3.62 8.21-11.7 4.6-17.97A14.02 14.02 0 0 0 21.88 5H9.08A16.25 16.25 0 0 0 5 7.66v6.39z" fill="#000"/></g><defs><clipPath id="a"><circle cx="22" cy="22" r="17"/></clipPath></defs></svg>