<svg width="36" height="36" fill="none" xmlns="http://www.w3.org/2000/svg"><path d="M0 18c0 9.941 8.059 18 18 18s18-8.059 18-18S27.941 0 18 0 0 8.059 0 18z" fill="#C2C6E0"/><path fill-rule="evenodd" clip-rule="evenodd" d="M29.25 15.038c0-6.04 0-9.06-1.547-11.285a9.698 9.698 0 0 0-1.756-1.908A17.927 17.927 0 0 0 18 0C8.059 0 0 8.059 0 18s8.059 18 18 18c4.257 0 8.168-1.478 11.25-3.948V15.038z" fill="#EDEFFF"/><path fill-rule="evenodd" clip-rule="evenodd" d="M29.25 15.038c0-6.04 0-9.06-1.547-11.285a9.698 9.698 0 0 0-1.756-1.908A17.927 17.927 0 0 0 18 0C8.059 0 0 8.059 0 18s8.059 18 18 18c4.257 0 8.168-1.478 11.25-3.948V15.038z" fill="url(#a)"/><path fill-rule="evenodd" clip-rule="evenodd" d="M29.25 15.038c0-6.04 0-9.06-1.547-11.285a9.698 9.698 0 0 0-1.756-1.908A17.927 17.927 0 0 0 18 0C8.059 0 0 8.059 0 18s8.059 18 18 18c4.257 0 8.168-1.478 11.25-3.948V15.038z" fill="url(#b)"/><path fill-rule="evenodd" clip-rule="evenodd" d="M21.75 35.609V23.625c0-.621-.504-1.125-1.125-1.125H.567C2.565 30.264 9.613 36 18 36c1.286 0 2.54-.135 3.75-.391z" fill="#FC3F1D"/><path fill-rule="evenodd" clip-rule="evenodd" d="M.062 19.5a18.242 18.242 0 0 1 .077-3.75H10.2c.63 0 .945 0 1.186.122.211.108.384.28.492.492.122.241.122.556.122 1.186v.15c0 .63 0 .945-.122 1.186a1.13 1.13 0 0 1-.492.492c-.241.122-.556.122-1.186.122H.062zm.716-6.75A17.9 17.9 0 0 1 2.408 9H19.95c.63 0 .945 0 1.186.122.211.108.384.28.492.492.122.241.122.556.122 1.186v.15c0 .63 0 .945-.122 1.186a1.13 1.13 0 0 1-.492.492c-.241.122-.556.122-1.186.122H.778z" fill="#262626"/><defs><linearGradient id="a" x1="14.625" y1="39.036" x2="14.625" y2="-4.12" gradientUnits="userSpaceOnUse"><stop stop-color="#fff"/><stop offset="1" stop-color="#fff" stop-opacity="0"/></linearGradient><linearGradient id="b" x1="14.625" y1="-6.289" x2="14.625" y2="18.217" gradientUnits="userSpaceOnUse"><stop stop-color="#C2C6E0"/><stop offset=".946" stop-color="#fff" stop-opacity="0"/></linearGradient></defs></svg>
