<svg width="44" height="44" fill="none" xmlns="http://www.w3.org/2000/svg"><g clip-path="url(#a)"><path fill="url(#b)" d="M5 5h34v34H5z"/><path fill="#B2CBE1" d="M5 5h34v34H5z"/><path d="m23.2 5-1.96 6.38h1.7L24.91 5h-1.7zm5.17 0-1.98 6.38h1.7L30.08 5h-1.7zM13.51 27.39c-.48-.14-1-.14-1.47-.01-.85.2-1.48 1.3-1.48 2.93 0 1.61.5 2.5 1.18 2.88a2.7 2.7 0 0 0 1.59.04c.59-.15 1.47-1.3 1.47-2.92 0-1.62-.49-2.68-1.29-2.92zm15.79 0a2.63 2.63 0 0 0-1.45-.01c-.83.2-1.45 1.3-1.45 2.93 0 1.61.5 2.5 1.16 2.88.5.18 1.05.19 1.56.04.58-.15 1.45-1.3 1.45-2.92 0-1.62-.48-2.68-1.27-2.92z" fill="#292929"/><path d="M29.29 10.42H18.27c-2.66 0-3.58 2.97-3.58 2.97l-4.3 13.93c-1.17 3.73 2.91 5.2 3.95 5.2h11.52c1.05 0 1.73-.78 1.73-2.35 0-1.85.98-2.79 1.68-2.76a1 1 0 0 1 .6.36c1.04-3.36 3.61-11.54 3.7-11.92 1.22-3.47-2.36-5.43-4.28-5.43z" fill="url(#c)"/><path d="M30.4 11.49a.71.71 0 0 0-.72.5l-4.59 14.05v.03c-.1.5-.3.97-.55 1.4-.3.32-.17.88 1.2.55 1.38-.33 1.53-1.18 2.13-3l3.66-11.47a1.8 1.8 0 0 0-.12-1.4c-.2-.38-.58-.63-1.02-.66z" fill="url(#d)"/><path d="M24.92 13.46c-.27.65-3.8 11.95-3.99 12.53-.19.59.62.77.62.77l4.37-13.92v-.03h-.02a.94.94 0 0 0-.98.65z" fill="url(#e)"/><path d="M22.2 12.81c-.3.06-.72 0-1 .65-.27.66-3.8 11.95-3.99 12.53-.19.59.61.77.61.77l4.38-13.95z" fill="url(#f)"/><path d="M18.33 12.81a.96.96 0 0 0-1 .65c-.27.65-3.8 11.95-3.99 12.53-.19.59.61.77.61.77l4.38-13.95z" fill="url(#g)"/></g><defs><linearGradient id="b" x1="39" y1="5" x2="6.84" y2="40.66" gradientUnits="userSpaceOnUse"><stop stop-color="#FFE26D"/><stop offset="1" stop-color="#FC0"/></linearGradient><linearGradient id="c" x1="22" y1="32.36" x2="22" y2="10.26" gradientUnits="userSpaceOnUse"><stop offset=".09" stop-color="#C70100"/><stop offset=".19" stop-color="#E11C1B"/><stop offset=".98" stop-color="#E11C1B"/></linearGradient><linearGradient id="d" x1="25.51" y1="28.33" x2="30.67" y2="11.54" gradientUnits="userSpaceOnUse"><stop stop-color="#E52F2D"/><stop offset=".07" stop-color="#E63634"/><stop offset="1" stop-color="#EF8883"/></linearGradient><linearGradient id="e" x1="21.26" y1="26.44" x2="26.79" y2="8.53" gradientUnits="userSpaceOnUse"><stop offset=".03" stop-color="#E52F2D"/><stop offset=".52" stop-color="#EA4A46"/><stop offset="1" stop-color="#EF6862"/></linearGradient><linearGradient id="f" x1="17.86" y1="25.39" x2="23.39" y2="7.48" gradientUnits="userSpaceOnUse"><stop offset=".03" stop-color="#E52F2D"/><stop offset=".52" stop-color="#EA4A46"/><stop offset="1" stop-color="#EF6862"/></linearGradient><linearGradient id="g" x1="14.32" y1="24.3" x2="19.86" y2="6.39" gradientUnits="userSpaceOnUse"><stop offset=".03" stop-color="#E52F2D"/><stop offset=".52" stop-color="#EA4A46"/><stop offset="1" stop-color="#EF6862"/></linearGradient><clipPath id="a"><circle cx="22" cy="22" r="17"/></clipPath></defs></svg>